<!-- <?xml version="1.0" encoding="UTF-8" standalone="yes"?>
 -->
 <svg
   height="512"
   viewBox="0 0 32 32"
   width="512"
   version="1.1"
   id="svg5"
   sodipodi:docname="inbound_call_3.svg"
   inkscape:version="1.1.1 (3bf5ae0d25, 2021-09-20)"
   xmlns:inkscape="http://www.inkscape.org/namespaces/inkscape"
   xmlns:sodipodi="http://sodipodi.sourceforge.net/DTD/sodipodi-0.dtd"
   xmlns="http://www.w3.org/2000/svg"
   xmlns:svg="http://www.w3.org/2000/svg">
  <defs
     id="defs9">
    <rect
       x="232.14465"
       y="103.96662"
       width="156.66203"
       height="181.58554"
       id="rect8110" />
  </defs>
  <sodipodi:namedview
     id="namedview7"
     pagecolor="#ffffff"
     bordercolor="#666666"
     borderopacity="1.0"
     inkscape:pageshadow="2"
     inkscape:pageopacity="0.0"
     inkscape:pagecheckerboard="0"
     showgrid="false"
     inkscape:zoom="1.4042969"
     inkscape:cx="217.19054"
     inkscape:cy="256"
     inkscape:window-width="1920"
     inkscape:window-height="1171"
     inkscape:window-x="-9"
     inkscape:window-y="-9"
     inkscape:window-maximized="1"
     inkscape:current-layer="svg5" />
  <g
     id="Layer_3"
     data-name="Layer 3">
    <path
       d="m30.035 22.594c-.053-.044-6.042-4.33-7.667-4.049-.781.138-1.228.67-2.123 1.737-.144.172-.491.583-.759.876a12.458 12.458 0 0 1 -1.651-.672 13.7 13.7 0 0 1 -6.321-6.321 12.458 12.458 0 0 1 -.672-1.651c.294-.269.706-.616.882-.764 1.061-.89 1.593-1.337 1.731-2.119.283-1.619-4.005-7.613-4.049-7.667a2.289 2.289 0 0 0 -1.706-.964c-1.738 0-6.7 6.436-6.7 7.521 0 .063.091 6.467 7.988 14.5 8.024 7.888 14.428 7.979 14.491 7.979 1.085 0 7.521-4.962 7.521-6.7a2.287 2.287 0 0 0 -.965-1.706zm-6.666 6.4c-.874-.072-6.248-.781-12.967-7.382-6.635-6.755-7.326-12.144-7.395-12.979a27.054 27.054 0 0 1 4.706-5.561c.04.04.093.1.161.178a35.391 35.391 0 0 1 3.574 6.063 11.886 11.886 0 0 1 -1.016.911 10.033 10.033 0 0 0 -1.512 1.422l-.243.34.072.411a11.418 11.418 0 0 0 .965 2.641 15.71 15.71 0 0 0 7.248 7.247 11.389 11.389 0 0 0 2.641.966l.411.072.34-.243a10.117 10.117 0 0 0 1.428-1.518c.313-.374.732-.873.89-1.014a35.163 35.163 0 0 1 6.078 3.578c.083.07.141.124.18.159a27.031 27.031 0 0 1 -5.561 4.707z"
       id="phone" />
  </g>
  <path
     id="arrowInternal"
     style="font-style:normal;font-weight:normal;font-size:40px;line-height:1.25;font-family:sans-serif;white-space:pre;shape-inside:url(#rect8110);fill:#000000;fill-opacity:1;stroke:none;stroke-width:0.269492"
     d="M 19.270974,7.9536602 13.244777,11.54226 v 2.399468 l 6.026197,3.596211 v -2.849131 l -3.166212,-1.935667 3.166212,-1.928602 z" />
  <path
     id="arrowCentral"
     style="font-style:normal;font-weight:normal;font-size:40px;line-height:1.25;font-family:sans-serif;white-space:pre;shape-inside:url(#rect8110);fill:#000000;fill-opacity:1;stroke:none;stroke-width:0.269492"
     d="M 25.271108,7.9536601 19.24491,11.54226 v 2.399468 l 6.026198,3.596211 v -2.849131 l -3.166213,-1.935667 3.166213,-1.928602 z" />
  <path
     id="arrowExternal"
     style="font-style:normal;font-weight:normal;font-size:40px;line-height:1.25;font-family:sans-serif;white-space:pre;shape-inside:url(#rect8110);fill:#000000;fill-opacity:1;stroke:none;stroke-width:0.269492"
     d="M 31.271237,7.9536604 25.24504,11.54226 v 2.399468 l 6.026197,3.596211 v -2.849131 l -3.166213,-1.935667 3.166213,-1.928602 z" />


</svg>
